<svg id="wave" style="transform:rotate(180deg); transition: 0.3s" viewBox="0 0 1440 100" version="1.1" xmlns="http://www.w3.org/2000/svg"><defs><linearGradient id="sw-gradient-0" x1="0" x2="0" y1="1" y2="0"><stop stop-color="rgba(0, 0, 0, 1)" offset="0%"></stop><stop stop-color="rgba(0, 0, 0, 1)" offset="100%"></stop></linearGradient></defs><path style="transform:translate(0, 0px); opacity:1" fill="url(#sw-gradient-0)" d="M0,40L120,33.3C240,27,480,13,720,13.3C960,13,1200,27,1440,41.7C1680,57,1920,73,2160,81.7C2400,90,2640,90,2880,88.3C3120,87,3360,83,3600,68.3C3840,53,4080,27,4320,28.3C4560,30,4800,60,5040,61.7C5280,63,5520,37,5760,21.7C6000,7,6240,3,6480,16.7C6720,30,6960,60,7200,73.3C7440,87,7680,83,7920,76.7C8160,70,8400,60,8640,58.3C8880,57,9120,63,9360,60C9600,57,9840,43,10080,31.7C10320,20,10560,10,10800,8.3C11040,7,11280,13,11520,16.7C11760,20,12000,20,12240,28.3C12480,37,12720,53,12960,50C13200,47,13440,23,13680,13.3C13920,3,14160,7,14400,10C14640,13,14880,17,15120,23.3C15360,30,15600,40,15840,43.3C16080,47,16320,43,16560,48.3C16800,53,17040,67,17160,73.3L17280,80L17280,100L17160,100C17040,100,16800,100,16560,100C16320,100,16080,100,15840,100C15600,100,15360,100,15120,100C14880,100,14640,100,14400,100C14160,100,13920,100,13680,100C13440,100,13200,100,12960,100C12720,100,12480,100,12240,100C12000,100,11760,100,11520,100C11280,100,11040,100,10800,100C10560,100,10320,100,10080,100C9840,100,9600,100,9360,100C9120,100,8880,100,8640,100C8400,100,8160,100,7920,100C7680,100,7440,100,7200,100C6960,100,6720,100,6480,100C6240,100,6000,100,5760,100C5520,100,5280,100,5040,100C4800,100,4560,100,4320,100C4080,100,3840,100,3600,100C3360,100,3120,100,2880,100C2640,100,2400,100,2160,100C1920,100,1680,100,1440,100C1200,100,960,100,720,100C480,100,240,100,120,100L0,100Z"></path></svg>